<svg width="24" height="24" viewBox="0 0 24 24" fill="none" xmlns="http://www.w3.org/2000/svg">
<path d="M10.1265 4.0605C9.7827 5.52842 9.73594 7.05027 9.98899 8.53653C10.242 10.0228 10.7898 11.4434 11.6 12.7149C12.4102 13.9863 13.4665 15.0828 14.7068 15.94C15.9471 16.7971 17.3462 17.3976 18.822 17.706C18.0461 18.5088 17.1169 19.1475 16.0894 19.5843C15.0619 20.021 13.9572 20.2469 12.8408 20.2485C12.7373 20.2485 12.6323 20.2522 12.5273 20.2485C10.5835 20.18 8.72523 19.4328 7.27516 18.1366C5.82509 16.8405 4.87491 15.0773 4.58967 13.1534C4.30444 11.2295 4.70219 9.26648 5.71381 7.60536C6.72544 5.94423 8.28702 4.68998 10.1273 4.0605M11.235 2.25C11.191 2.25015 11.1471 2.25416 11.1038 2.262C8.71623 2.68689 6.57028 3.98001 5.07908 5.8924C3.58789 7.80478 2.85689 10.2012 3.02681 12.6203C3.19674 15.0394 4.25558 17.3101 5.99948 18.9952C7.74337 20.6804 10.049 21.6608 12.4725 21.7477C12.5955 21.7522 12.7185 21.7477 12.84 21.7477C14.4142 21.7488 15.9655 21.3707 17.3627 20.6455C18.76 19.9204 19.962 18.8694 20.8673 17.5815C20.9406 17.4705 20.9834 17.3421 20.9914 17.2093C20.9994 17.0765 20.9722 16.944 20.9127 16.825C20.8532 16.706 20.7633 16.6048 20.6523 16.5316C20.5412 16.4583 20.4128 16.4156 20.28 16.4078C18.7817 16.2763 17.3337 15.802 16.0479 15.0216C14.7621 14.2413 13.673 13.1757 12.8647 11.9073C12.0564 10.6389 11.5506 9.20159 11.3863 7.70652C11.2221 6.21145 11.4038 4.69863 11.9175 3.285C11.9612 3.17185 11.9772 3.04989 11.9643 2.92929C11.9513 2.80869 11.9097 2.69294 11.8429 2.59168C11.7761 2.49041 11.6861 2.40657 11.5804 2.34714C11.4746 2.28771 11.3562 2.2544 11.235 2.25V2.25Z" fill="#7E7E7E"/>
</svg>
