<svg width="19" height="22" viewBox="0 0 19 22" fill="none" xmlns="http://www.w3.org/2000/svg">
<path d="M12.0058 18C12.0058 18.7956 11.6898 19.5587 11.1272 20.1213C10.5646 20.6839 9.8015 21 9.00585 21C8.2102 21 7.44714 20.6839 6.88453 20.1213C6.32192 19.5587 6.00585 18.7956 6.00585 18M9.72685 4.00299L8.26085 3.99999C4.91685 3.99199 2.01385 6.70899 1.99085 9.99999V13.79C1.99085 14.58 1.89085 15.351 1.45985 16.008L1.17285 16.446C0.735847 17.11 1.20585 18 1.99085 18H16.0208C16.8058 18 17.2748 17.11 16.8388 16.446L16.5518 16.008C16.1218 15.351 16.0208 14.579 16.0208 13.789V10.001C15.9808 6.70899 13.0708 4.01099 9.72685 4.00299V4.00299Z" stroke="#7E7E7E" stroke-width="2" stroke-linecap="round" stroke-linejoin="round"/>
<path d="M9.00586 1C9.53629 1 10.045 1.21071 10.4201 1.58579C10.7951 1.96086 11.0059 2.46957 11.0059 3V4H7.00586V3C7.00586 2.46957 7.21657 1.96086 7.59165 1.58579C7.96672 1.21071 8.47543 1 9.00586 1Z" stroke="#7E7E7E" stroke-width="2" stroke-linecap="round" stroke-linejoin="round"/>
</svg>
